<svg width="203" height="31" viewBox="0 0 203 31" fill="none" xmlns="http://www.w3.org/2000/svg">
<g clip-path="url(#clip0_573_823)">
<mask id="mask0_573_823" style="mask-type:luminance" maskUnits="userSpaceOnUse" x="0" y="0" width="31" height="31">
<path d="M30.6821 0H0.5V31H30.6821V0Z" fill="white"/>
</mask>
<g mask="url(#mask0_573_823)">
<path d="M30.6821 0H10.3347C4.90312 0 0.5 4.48682 0.5 10.0216V22.1429C0.5 27.0344 4.39151 31 9.1919 31H10.3347V8.6676C10.3347 8.4121 10.675 8.33466 10.7816 8.56586C11.1298 9.32058 11.8744 9.80239 12.6928 9.80239H21.0626C26.3755 9.80239 30.6821 5.4137 30.6821 0Z" fill="#29A8F1"/>
</g>
<path d="M41.3477 27.8998V3.34784H52.123C53.8631 3.34784 55.3802 3.65474 56.6741 4.26854C57.9681 4.8596 58.972 5.70074 59.6859 6.79194C60.3998 7.88314 60.7567 9.15618 60.7567 10.6111C60.7567 12.0433 60.3998 13.305 59.6859 14.3962C58.972 15.4647 57.9681 16.3058 56.6741 16.9196C55.3802 17.5107 53.8631 17.8062 52.123 17.8062H45.4302V13.9529H51.9892C53.2162 13.9529 54.1532 13.6688 54.8001 13.1004C55.4694 12.5094 55.804 11.691 55.804 10.6452C55.804 9.57679 55.4806 8.76974 54.8336 8.22414C54.1866 7.65578 53.2385 7.37164 51.9892 7.37164H46.5011V27.8998H41.3477ZM54.934 27.8998L45.2629 15.1464H50.7175L61.8942 27.8998H54.934ZM62.9645 27.8998L71.5981 3.34784H76.0154L68.0844 27.8998H62.9645ZM80.6334 27.8998L72.7359 3.34784H77.3539L85.9876 27.8998H80.6334ZM67.5155 18.3859H81.0349V22.4779H67.5155V18.3859ZM98.5195 28.2408C96.735 28.2408 95.0843 27.9339 93.5669 27.3201C92.0725 26.7063 90.7674 25.8425 89.6516 24.7285C88.5588 23.5919 87.6997 22.2506 87.0749 20.7047C86.4725 19.1361 86.1713 17.4084 86.1713 15.5215C86.1713 13.0209 86.6958 10.8385 87.7441 8.97434C88.7931 7.08749 90.243 5.62117 92.0944 4.57544C93.9684 3.5297 96.0992 3.00684 98.486 3.00684C100.918 3.00684 103.06 3.5297 104.911 4.57544C106.763 5.62117 108.213 7.08749 109.261 8.97434C110.332 10.8612 110.868 13.055 110.868 15.5556C110.868 17.4198 110.556 19.1361 109.931 20.7047C109.328 22.2506 108.47 23.5919 107.354 24.7285C106.261 25.8425 104.956 26.7063 103.439 27.3201C101.944 27.9339 100.305 28.2408 98.5195 28.2408ZM98.486 24.0806C99.8915 24.0806 101.13 23.7169 102.201 22.9894C103.271 22.262 104.108 21.2617 104.71 19.9886C105.335 18.6928 105.647 17.1924 105.647 15.4874C105.647 13.8052 105.346 12.3389 104.744 11.0885C104.141 9.83818 103.305 8.87204 102.234 8.19004C101.163 7.50804 99.914 7.16704 98.486 7.16704C97.0806 7.16704 95.8424 7.50804 94.7716 8.19004C93.7007 8.87204 92.8641 9.83818 92.2618 11.0885C91.6819 12.3161 91.3917 13.7824 91.3917 15.4874C91.3917 17.2152 91.6929 18.7269 92.2952 20.0227C92.8976 21.2958 93.7342 22.2961 94.805 23.0235C95.8759 23.7283 97.1031 24.0806 98.486 24.0806ZM118.769 27.8998V7.37164H110.905V3.34784H131.787V7.37164H123.923V27.8998H118.769ZM144.173 28.2408C142.388 28.2408 140.738 27.9339 139.22 27.3201C137.726 26.7063 136.421 25.8425 135.305 24.7285C134.212 23.5919 133.353 22.2506 132.728 20.7047C132.126 19.1361 131.825 17.4084 131.825 15.5215C131.825 13.0209 132.349 10.8385 133.397 8.97434C134.446 7.08749 135.896 5.62117 137.748 4.57544C139.622 3.5297 141.752 3.00684 144.139 3.00684C146.571 3.00684 148.713 3.5297 150.564 4.57544C152.416 5.62117 153.866 7.08749 154.915 8.97434C155.985 10.8612 156.521 13.055 156.521 15.5556C156.521 17.4198 156.209 19.1361 155.584 20.7047C154.982 22.2506 154.123 23.5919 153.007 24.7285C151.914 25.8425 150.609 26.7063 149.092 27.3201C147.598 27.9339 145.958 28.2408 144.173 28.2408ZM144.139 24.0806C145.545 24.0806 146.783 23.7169 147.854 22.9894C148.925 22.262 149.761 21.2617 150.364 19.9886C150.988 18.6928 151.301 17.1924 151.301 15.4874C151.301 13.8052 150.999 12.3389 150.397 11.0885C149.795 9.83818 148.958 8.87204 147.887 8.19004C146.816 7.50804 145.567 7.16704 144.139 7.16704C142.734 7.16704 141.496 7.50804 140.425 8.19004C139.354 8.87204 138.517 9.83818 137.915 11.0885C137.335 12.3161 137.045 13.7824 137.045 15.4874C137.045 17.2152 137.346 18.7269 137.948 20.0227C138.551 21.2958 139.387 22.2961 140.458 23.0235C141.529 23.7283 142.756 24.0806 144.139 24.0806ZM159.059 27.8998V3.34784H169.835C171.575 3.34784 173.092 3.65474 174.386 4.26854C175.68 4.8596 176.684 5.70074 177.397 6.79194C178.112 7.88314 178.468 9.15618 178.468 10.6111C178.468 12.0433 178.112 13.305 177.397 14.3962C176.684 15.4647 175.68 16.3058 174.386 16.9196C173.092 17.5107 171.575 17.8062 169.835 17.8062H163.142V13.9529H169.701C170.928 13.9529 171.865 13.6688 172.512 13.1004C173.181 12.5094 173.516 11.691 173.516 10.6452C173.516 9.57679 173.193 8.76974 172.545 8.22414C171.898 7.65578 170.951 7.37164 169.701 7.37164H164.213V27.8998H159.059ZM172.646 27.8998L162.975 15.1464H168.429L179.606 27.8998H172.646ZM187.64 27.8998V17.9767L178.672 3.34784H184.863L191.957 16.3399H189.046L196.107 3.34784H201.762L192.794 17.9767V27.8998H187.64Z" fill="#29A8F1"/>
</g>
<defs>
<clipPath id="clip0_573_823">
<rect width="202" height="31" fill="white" transform="translate(0.5)"/>
</clipPath>
</defs>
</svg>
