<svg width="260" height="39" viewBox="0 0 260 39" fill="none" xmlns="http://www.w3.org/2000/svg">
<g clip-path="url(#clip0_573_838)">
<mask id="mask0_573_838" style="mask-type:luminance" maskUnits="userSpaceOnUse" x="0" y="0" width="39" height="39">
<path d="M38.8483 0H0V39H38.8483V0Z" fill="white"/>
</mask>
<g mask="url(#mask0_573_838)">
<path d="M38.8483 0H12.6585C5.66738 0 0 5.64471 0 12.6078V27.8572C0 34.011 5.00888 39 11.1876 39H12.6585V10.9044C12.6585 10.583 13.0965 10.4855 13.2338 10.7764C13.6819 11.7259 14.6403 12.332 15.6937 12.332H26.4667C33.3051 12.332 38.8483 6.81078 38.8483 0Z" fill="white"/>
</g>
<path d="M52.5771 35.1V4.21202H66.4464C68.6862 4.21202 70.6389 4.59812 72.3043 5.37032C73.9697 6.11392 75.2619 7.17212 76.1808 8.54492C77.0997 9.91772 77.5591 11.5193 77.5591 13.3497C77.5591 15.1515 77.0997 16.7388 76.1808 18.1116C75.2619 19.4558 73.9697 20.514 72.3043 21.2862C70.6389 22.0298 68.6862 22.4016 66.4464 22.4016H57.832V17.5539H66.2741C67.8535 17.5539 69.0595 17.1964 69.8922 16.4814C70.7537 15.7378 71.1844 14.7082 71.1844 13.3926C71.1844 12.0484 70.7681 11.0331 69.9353 10.3467C69.1026 9.63169 67.8822 9.27422 66.2741 9.27422H59.2103V35.1H52.5771ZM70.0645 35.1L57.6166 19.0554H64.6374L79.0232 35.1H70.0645ZM80.4008 35.1L91.5134 4.21202H97.1989L86.9908 35.1H80.4008ZM103.143 35.1L92.9779 4.21202H98.9218L110.034 35.1H103.143ZM86.2586 23.1309H103.66V28.2789H86.2586V23.1309ZM126.165 35.529C123.868 35.529 121.743 35.1429 119.79 34.3707C117.867 33.5985 116.187 32.5117 114.751 31.1103C113.344 29.6803 112.238 27.9929 111.434 26.0481C110.659 24.0747 110.271 21.9011 110.271 19.5273C110.271 16.3813 110.946 13.6357 112.295 11.2905C113.646 8.91675 115.512 7.07202 117.895 5.75642C120.307 4.44082 123.049 3.78302 126.122 3.78302C129.252 3.78302 132.008 4.44082 134.391 5.75642C136.775 7.07202 138.642 8.91675 139.991 11.2905C141.369 13.6643 142.058 16.4242 142.058 19.5702C142.058 21.9154 141.657 24.0747 140.852 26.0481C140.077 27.9929 138.972 29.6803 137.536 31.1103C136.129 32.5117 134.449 33.5985 132.496 34.3707C130.573 35.1429 128.462 35.529 126.165 35.529ZM126.122 30.2952C127.931 30.2952 129.524 29.8376 130.903 28.9224C132.281 28.0072 133.358 26.7488 134.133 25.1472C134.937 23.517 135.339 21.6294 135.339 19.4844C135.339 17.368 134.951 15.5233 134.176 13.9503C133.401 12.3773 132.324 11.1618 130.946 10.3038C129.567 9.44582 127.96 9.01682 126.122 9.01682C124.313 9.01682 122.719 9.44582 121.341 10.3038C119.962 11.1618 118.885 12.3773 118.11 13.9503C117.364 15.4947 116.99 17.3394 116.99 19.4844C116.99 21.658 117.378 23.5599 118.153 25.1901C118.929 26.7917 120.005 28.0501 121.384 28.9653C122.762 29.8519 124.342 30.2952 126.122 30.2952ZM152.229 35.1V9.27422H142.107V4.21202H168.984V9.27422H158.862V35.1H152.229ZM184.926 35.529C182.629 35.529 180.505 35.1429 178.552 34.3707C176.628 33.5985 174.948 32.5117 173.512 31.1103C172.106 29.6803 171 27.9929 170.196 26.0481C169.42 24.0747 169.033 21.9011 169.033 19.5273C169.033 16.3813 169.708 13.6357 171.057 11.2905C172.407 8.91675 174.273 7.07202 176.656 5.75642C179.068 4.44082 181.811 3.78302 184.883 3.78302C188.013 3.78302 190.77 4.44082 193.153 5.75642C195.537 7.07202 197.403 8.91675 198.752 11.2905C200.131 13.6643 200.82 16.4242 200.82 19.5702C200.82 21.9154 200.418 24.0747 199.614 26.0481C198.839 27.9929 197.734 29.6803 196.297 31.1103C194.891 32.5117 193.211 33.5985 191.258 34.3707C189.334 35.1429 187.224 35.529 184.926 35.529ZM184.883 30.2952C186.692 30.2952 188.286 29.8376 189.664 28.9224C191.043 28.0072 192.119 26.7488 192.895 25.1472C193.699 23.517 194.101 21.6294 194.101 19.4844C194.101 17.368 193.713 15.5233 192.938 13.9503C192.162 12.3773 191.086 11.1618 189.707 10.3038C188.329 9.44582 186.721 9.01682 184.883 9.01682C183.074 9.01682 181.48 9.44582 180.102 10.3038C178.724 11.1618 177.647 12.3773 176.872 13.9503C176.125 15.4947 175.752 17.3394 175.752 19.4844C175.752 21.658 176.139 23.5599 176.915 25.1901C177.69 26.7917 178.767 28.0501 180.145 28.9653C181.524 29.8519 183.103 30.2952 184.883 30.2952ZM204.087 35.1V4.21202H217.956C220.196 4.21202 222.149 4.59812 223.814 5.37032C225.48 6.11392 226.772 7.17212 227.691 8.54492C228.61 9.91772 229.069 11.5193 229.069 13.3497C229.069 15.1515 228.61 16.7388 227.691 18.1116C226.772 19.4558 225.48 20.514 223.814 21.2862C222.149 22.0298 220.196 22.4016 217.956 22.4016H209.342V17.5539H217.784C219.364 17.5539 220.57 17.1964 221.402 16.4814C222.264 15.7378 222.694 14.7082 222.694 13.3926C222.694 12.0484 222.279 11.0331 221.445 10.3467C220.613 9.63169 219.393 9.27422 217.784 9.27422H210.72V35.1H204.087ZM221.575 35.1L209.127 19.0554H216.147L230.534 35.1H221.575ZM240.875 35.1V22.6161L229.331 4.21202H237.3L246.431 20.5569H242.684L251.772 4.21202H259.051L247.508 22.6161V35.1H240.875Z" fill="white"/>
</g>
<defs>
<clipPath id="clip0_573_838">
<rect width="260" height="39" fill="white"/>
</clipPath>
</defs>
</svg>
